<svg width="130" height="60" viewBox="0 0 130 60" fill="none" xmlns="http://www.w3.org/2000/svg">
<g clip-path="url(#clip0_0_988)">
<path fill-rule="evenodd" clip-rule="evenodd" d="M0 14.07C0 6.31345 6.21311 0 13.8548 0C21.5131 0 27.7407 6.31345 27.7407 14.07C27.7407 21.9228 21.6445 28.0666 13.8548 28.0666C6.08587 28.0666 0 21.9176 0 14.07ZM6.49242 14.0648C6.49242 18.1676 9.79345 21.5028 13.8548 21.5028C17.9317 21.5028 21.2483 18.1676 21.2483 14.0648C21.2483 9.91966 17.9307 6.55345 13.8548 6.55345C9.79345 6.55345 6.49242 9.92587 6.49242 14.0648ZM115.425 0C107.788 0 101.57 6.31345 101.57 14.07C101.57 21.9176 107.65 28.0666 115.425 28.0666C123.209 28.0666 129.31 21.9228 129.31 14.07C129.31 6.31345 123.082 0 115.425 0ZM108.062 14.0648C108.062 18.1676 111.363 21.5028 115.425 21.5028C119.507 21.5028 122.818 18.1676 122.818 14.0648C122.818 9.91966 119.507 6.55345 115.425 6.55345C111.363 6.55345 108.062 9.92587 108.062 14.0648ZM58.5352 0.388966H52.1214V27.6776H58.5352V0.388966ZM90.5845 0.388966H97.0025V27.6776H90.5845V0.388966ZM88.0738 0.388966L75.5856 27.421C75.5245 27.5533 75.3929 27.6386 75.2473 27.6404H73.7918C73.6457 27.6411 73.5131 27.5549 73.4545 27.421L63.1283 4.91173L61.0242 0.383793H68.128L74.5625 14.7786L80.9845 0.383793H88.0728V0.388966H88.0738ZM48.4562 27.6776V21.6197H38.6886V0.388966H32.3131V27.6776H48.4562ZM54.5845 35.7269L50.2759 40.1069C50.2914 40.0904 49.738 39.5369 49.7007 39.4997C48.3275 38.2827 46.5577 37.6081 44.7228 37.6024C40.6676 37.6024 37.4866 40.9852 37.4866 45.3011C37.4866 49.5528 40.6831 52.8766 44.7642 52.8766C46.5735 52.8766 48.4304 52.2062 49.7162 51.0921L50.3659 50.5335C50.3659 50.5335 50.3069 50.4373 50.9928 51.1562L54.5369 54.9497C54.0569 55.5942 53.43 56.1424 52.8021 56.6328C52.1959 57.1076 51.5576 57.5328 50.8769 57.8949C49.5218 58.62 48.0445 59.0949 46.5259 59.308C45.8669 59.4031 45.1966 59.4455 44.5324 59.4455C36.8535 59.4455 30.6042 53.1704 30.6042 45.45C30.6042 37.6986 36.8483 31.3914 44.5324 31.3914C48.2669 31.3914 51.1459 32.6431 53.8676 35.0131C54.0447 35.1663 54.2096 35.3382 54.374 35.5097L54.3743 35.5101L54.3746 35.5104C54.4443 35.5831 54.514 35.6558 54.5845 35.7269ZM56.4414 45.4449C56.4414 37.6935 62.6535 31.3862 70.2849 31.3862C77.9431 31.3862 84.1707 37.6986 84.1707 45.4449C84.1707 53.2873 78.0745 59.4352 70.2849 59.4352C62.5273 59.4352 56.4414 53.2924 56.4414 45.4449ZM70.2849 52.8766C66.24 52.8766 62.938 49.5476 62.938 45.45C62.938 41.3111 66.2349 37.949 70.2849 37.949C74.3607 37.949 77.6794 41.3111 77.6794 45.45C77.6794 49.5424 74.3618 52.8776 70.2849 52.8776V52.8766ZM20.2935 51.8597L23.4 54.779L24.3921 55.6738L23.3317 56.8562L20.2779 59.999L16.8714 56.5852C16.2279 57.2131 13.6014 59.4507 8.57587 59.4507C3.76552 59.4507 0 56.1476 0 51.9393C0 46.9469 4.17724 44.5862 5.14242 44.1186L4.50931 43.4473C2.70621 41.5345 1.94069 39.8452 1.94069 37.8052C1.94069 34.678 4.59931 31.3635 9.53069 31.3635C13.9128 31.3635 17.3514 34.2828 17.3514 37.9966C17.3514 41.4228 14.7238 43.5797 13.6066 44.4962L13.5252 44.5625C13.4242 44.6446 13.3315 44.7199 13.2693 44.7797L16.3759 47.9866C16.8135 47.2024 17.2086 46.1804 17.4352 45.418L23.0731 45.509C23.0731 45.509 22.8197 46.6066 22.6666 47.0535L22.6252 47.16C21.8866 49.3397 20.7786 51.0869 20.3628 51.7418C20.3359 51.7904 20.3141 51.8276 20.2935 51.8597ZM9.45104 36.0786C10.9117 36.0786 12.061 37.0697 12.061 38.3328C12.061 40.048 10.321 41.0814 9.84104 41.3431L9.11897 40.6076L8.85001 40.3086C8.01621 39.388 7.42035 38.7155 7.42035 37.7514C7.41518 36.9207 8.11138 36.0786 9.45104 36.0786ZM5.85311 51.1666C5.85311 52.8828 7.32931 54.2245 9.21725 54.2245C11.6172 54.2245 12.7562 52.92 13.0624 52.4928L8.28932 47.3845C7.77311 47.6028 5.85311 48.5886 5.85311 51.1666Z" fill="#F04E5F"/>
</g>
<defs>
<clipPath id="clip0_0_988">
<rect width="129.31" height="59.999" fill="white"/>
</clipPath>
</defs>
</svg>
